<svg id="a" width="110mm" height="40mm" version="1.1" viewBox="0 0 110 40" xmlns="http://www.w3.org/2000/svg"><g id="b"><path id="c" d="m26.704 13.996q0.38961 0 0.83117 0.05195 0.46753 0.02597 0.8052 0.1039l-0.28572 2.1039q-0.33766-0.07792-0.75325-0.12987-0.38961-0.05195-0.75325-0.05195-0.80519 0-1.5325 0.33766t-1.2987 0.96104q-0.57143 0.5974-0.90909 1.4545-0.31169 0.85714-0.31169 1.9221v7.4286h-2.2857v-13.922h1.8701l0.25974 2.5455h0.1039q0.44156-0.77922 1.0649-1.4026 0.62338-0.64935 1.4286-1.013 0.80519-0.38961 1.7662-0.38961zm9.0909 0q1.7922 0 3.0649 0.77922 1.2987 0.77922 1.974 2.2078 0.7013 1.4026 0.7013 3.2987v1.3766h-9.5325q0.05195 2.3636 1.1948 3.6104 1.1688 1.2208 3.2468 1.2208 1.3247 0 2.3377-0.23377 1.039-0.25974 2.1299-0.72727v2q-1.0649 0.46753-2.1039 0.67532-1.039 0.23377-2.4675 0.23377-1.974 0-3.5065-0.80519-1.5065-0.80519-2.3636-2.3896-0.83117-1.6104-0.83117-3.9221 0-2.2857 0.75325-3.9221 0.77922-1.6364 2.1558-2.5195 1.4026-0.88312 3.2468-0.88312zm-0.02597 1.8701q-1.6364 0-2.5974 1.0649-0.93506 1.039-1.1169 2.9091h7.0909q0-1.1948-0.36364-2.0779t-1.1169-1.3766q-0.72727-0.51948-1.8961-0.51948zm18.364 8.4675q0 1.3506-0.67532 2.2597t-1.9221 1.3766q-1.2468 0.46753-2.961 0.46753-1.4545 0-2.5195-0.23377-1.039-0.23377-1.8442-0.64935v-2.0779q0.83117 0.41558 2 0.77922 1.1948 0.33766 2.4156 0.33766 1.7403 0 2.5195-0.54545 0.77922-0.57143 0.77922-1.5065 0-0.51948-0.28571-0.93506t-1.039-0.83117q-0.72727-0.41558-2.1039-0.93506-1.3506-0.51948-2.3117-1.039t-1.4805-1.2468-0.51948-1.8701q0-1.7662 1.4286-2.7273 1.4545-0.96104 3.7922-0.96104 1.2727 0 2.3636 0.25974 1.1169 0.23377 2.0779 0.67532l-0.77922 1.8182q-0.88312-0.36364-1.8442-0.62338-0.96104-0.25974-1.974-0.25974-1.4026 0-2.1558 0.46753-0.72727 0.44156-0.72727 1.2208 0 0.57143 0.33766 0.98701 0.33766 0.38961 1.1169 0.77922 0.80519 0.36364 2.1299 0.88312 1.3247 0.49351 2.2597 1.013t1.4286 1.2727q0.49351 0.72727 0.49351 1.8442zm8.026 2.2338q0.51948 0 1.0649-0.07792 0.54545-0.1039 0.88312-0.20779v1.7403q-0.36364 0.18182-1.039 0.28571-0.67532 0.12987-1.2987 0.12987-1.0909 0-2.026-0.36364-0.90909-0.38961-1.4805-1.3247t-0.57143-2.6234v-8.1039h-1.974v-1.0909l2-0.90909 0.90909-2.961h1.3506v3.1948h4.026v1.7662h-4.026v8.0519q0 1.2727 0.5974 1.8961 0.62338 0.5974 1.5844 0.5974zm13.792-2.2338q0 1.3506-0.67532 2.2597-0.67532 0.90909-1.9221 1.3766t-2.961 0.46753q-1.4545 0-2.5195-0.23377-1.039-0.23377-1.8442-0.64935v-2.0779q0.83117 0.41558 2 0.77922 1.1948 0.33766 2.4156 0.33766 1.7403 0 2.5195-0.54545 0.77922-0.57143 0.77922-1.5065 0-0.51948-0.28571-0.93506t-1.039-0.83117q-0.72727-0.41558-2.1039-0.93506-1.3506-0.51948-2.3117-1.039t-1.4805-1.2468-0.51948-1.8701q0-1.7662 1.4286-2.7273 1.4545-0.96104 3.7922-0.96104 1.2727 0 2.3636 0.25974 1.1169 0.23377 2.0779 0.67532l-0.77922 1.8182q-0.88312-0.36364-1.8442-0.62338t-1.974-0.25974q-1.4026 0-2.1558 0.46753-0.72727 0.44156-0.72727 1.2208 0 0.57143 0.33766 0.98701 0.33766 0.38961 1.1169 0.77922 0.80519 0.36364 2.1299 0.88312 1.3247 0.49351 2.2597 1.013 0.93506 0.51948 1.4286 1.2727 0.49351 0.72727 0.49351 1.8442zm5.6623-10.104q0 0.49351-0.05195 1.013-0.02597 0.51948-0.07792 0.93506h0.15584q0.44156-0.72727 1.1169-1.1948t1.5065-0.7013q0.83117-0.25974 1.7143-0.25974 1.6883 0 2.8052 0.54546 1.1429 0.51948 1.7143 1.6364t0.57143 2.9091v9.0649h-2.2597v-8.9091q0-1.6883-0.75325-2.5195t-2.3636-0.83117q-1.5584 0-2.4416 0.5974-0.88312 0.57143-1.2727 1.7143-0.36364 1.1169-0.36364 2.7532v7.1948h-2.2857v-19.74h2.2857z" stroke-width=".048976" aria-label="restsh"/><path id="d" d="m16.546 35.025q-2.0986-0.0344-3.6468-0.61926-1.5138-0.58486-2.3394-1.8234-0.82569-1.2041-0.82569-3.0275v-5.0573q0-1.1697-0.48165-1.8578-0.48165-0.72248-1.4105-1.0321-0.9289-0.34404-2.305-0.34404v-2.5115q1.3761-0.034403 2.305-0.34404 0.9289-0.30963 1.4105-0.9977 0.48165-0.72248 0.48165-1.8578v-5.0917q0-1.8234 0.86009-3.0275 0.86009-1.2041 2.4083-1.789 1.5482-0.61926 3.5436-0.61926v2.4771q-1.1697 0.034404-2.0298 0.37844-0.86009 0.34404-1.3417 1.0321-0.44725 0.68807-0.44725 1.8234v4.9541q0 1.7546-0.9289 2.8211-0.9289 1.0321-2.8211 1.3761v0.20642q1.9266 0.34404 2.8211 1.4105 0.9289 1.0321 0.9289 2.7867v5.0573q0 1.1009 0.44725 1.789 0.44725 0.72248 1.3073 1.0321 0.86009 0.34404 2.0642 0.37844z" fill="#0060bd" stroke-width=".06487" aria-label="{"/><path id="e" d="m94.732 32.547q1.2041-0.0344 2.0298-0.37844 0.86009-0.34404 1.3073-1.0665 0.48165-0.68807 0.48165-1.789v-4.9885q0-1.7546 0.9289-2.7867 0.9289-1.0665 2.8211-1.4105v-0.20642q-1.8922-0.34404-2.8211-1.3761-0.9289-1.0665-0.9289-2.8211v-5.0229q0-1.1353-0.44725-1.8234-0.44725-0.68807-1.3073-1.0321-0.82569-0.34404-2.0642-0.34404v-2.4771q2.133 0 3.6468 0.61926 1.5138 0.58486 2.3394 1.789 0.82569 1.2041 0.82569 3.0619v5.0229q0 1.1697 0.48165 1.8922 0.48165 0.68807 1.4106 1.0321 0.9633 0.30963 2.305 0.30963v2.5115q-1.3417 0-2.305 0.34404-0.9289 0.30963-1.4106 0.9977t-0.48165 1.8578v5.1261q0 1.8234-0.86009 3.0275t-2.4083 1.789q-1.5138 0.61926-3.5436 0.61926z" fill="#0060bd" stroke-width=".06487" aria-label="}"/></g></svg>